<svg xmlns="http://www.w3.org/2000/svg" role="img" aria-label="deployment diagram" class="finch-canvas" width="100%" preserveAspectRatio="xMinYMin meet" tabindex="0" viewBox="0 -62 1088 435.34869384765625" data-editable="true" style="background: rgb(255, 255, 255); aspect-ratio: 1088 / 435.349; width: 837px; height: 294.491px; min-width: 0px; max-width: none;" data-zoom="0.7693014705882353"><defs><marker id="finch-message-dot" viewBox="0 0 10 10" refX="5" refY="5" markerWidth="8" markerHeight="8" orient="auto"><circle cx="5" cy="5" r="4" fill="#64748b"/></marker><marker id="finch-decoration-square" viewBox="0 0 10 10" refX="9" refY="5" markerWidth="9" markerHeight="9" orient="auto-start-reverse"><path d="M 1 1 H 9 V 9 H 1 Z" fill="#ffffff" stroke="#64748b" stroke-width="1.2"/></marker><marker id="finch-decoration-crowfoot" viewBox="0 0 10 10" refX="9" refY="5" markerWidth="9" markerHeight="9" orient="auto-start-reverse"><path d="M 9 1 L 1 5 L 9 9 M 1 5 H 9" fill="none" stroke="#64748b" stroke-width="1.2"/></marker><marker id="finch-decoration-circle-cross" viewBox="0 0 10 10" refX="9" refY="5" markerWidth="9" markerHeight="9" orient="auto-start-reverse"><path d="M 9 5 A 4 4 0 1 0 1 5 A 4 4 0 1 0 9 5 M 1 5 H 9 M 5 1 V 9" fill="#ffffff" stroke="#64748b" stroke-width="1.2"/></marker><marker id="finch-decoration-triangle" viewBox="0 0 10 10" refX="9" refY="5" markerWidth="9" markerHeight="9" orient="auto-start-reverse"><path d="M 1 1 L 9 5 L 1 9 Z" fill="#ffffff" stroke="#64748b" stroke-width="1.2"/></marker><marker id="finch-non-navigable" viewBox="0 0 10 10" refX="9" refY="5" markerWidth="8" markerHeight="8" orient="auto-start-reverse"><path d="M 2 2 L 8 8 M 8 2 L 2 8" fill="none" stroke="#64748b" stroke-width="1.5"/></marker><marker id="finch-open-arrow" viewBox="0 0 10 10" refX="9" refY="5" markerWidth="7" markerHeight="7" orient="auto-start-reverse"><path d="M 1 1 L 9 5 L 1 9" fill="none" stroke="#64748b" stroke-width="1.4"/></marker><marker id="finch-arrow" viewBox="0 0 10 10" refX="9" refY="5" markerWidth="7" markerHeight="7" orient="auto-start-reverse"><path d="M 0 0 L 10 5 L 0 10 z" fill="#64748b"/></marker><marker id="finch-triangle" viewBox="0 0 12 12" refX="11" refY="6" markerWidth="9" markerHeight="9" orient="auto-start-reverse"><path d="M 1 1 L 11 6 L 1 11 Z" fill="#ffffff" stroke="#64748b" stroke-width="1.2"/></marker><marker id="finch-diamond-open" viewBox="0 0 14 10" refX="13" refY="5" markerWidth="11" markerHeight="9" orient="auto-start-reverse"><path d="M 1 5 L 7 1 L 13 5 L 7 9 Z" fill="#ffffff" stroke="#64748b" stroke-width="1.2"/></marker><marker id="finch-diamond-filled" viewBox="0 0 14 10" refX="13" refY="5" markerWidth="11" markerHeight="9" orient="auto-start-reverse"><path d="M 1 5 L 7 1 L 13 5 L 7 9 Z" fill="#64748b" stroke="#64748b" stroke-width="1.2"/></marker><filter id="finch-shadow" x="-20%" y="-30%" width="140%" height="170%"><feDropShadow dx="0" dy="2" stdDeviation="2.5" flood-color="#0f172a" flood-opacity="0.1"/></filter></defs><style>
      .finch-node { cursor: grab; outline: none; }
      .finch-node:active { cursor: grabbing; }
      .finch-node &gt; :first-child { transition: stroke 120ms ease, stroke-width 120ms ease; }
      .finch-node.is-selected &gt; :first-child { stroke: #4f46e5; stroke-width: 2.4; }
      .finch-node.is-pinned::after { content: ""; }
      .finch-container-headings { cursor: grab; }
      .finch-container-headings text { paint-order: stroke; stroke: #ffffff; stroke-width: 5px; stroke-linejoin: round; }
      .finch-canvas.is-view-only, .finch-canvas.is-view-only .finch-node { cursor: grab; }
      .finch-canvas.is-panning { cursor: grabbing; user-select: none; }
      .finch-canvas.is-panning .finch-node { cursor: grabbing; }
      .finch-edge { pointer-events: none; }
      .finch-activation { pointer-events: none; }
      .finch-edge-label { paint-order: stroke; stroke: #ffffff; stroke-width: 5px; stroke-linejoin: round; }
      .finch-cardinality { paint-order: stroke; stroke: #ffffff; stroke-width: 5px; stroke-linejoin: round; pointer-events: none; }
      .finch-canvas:focus-visible { outline: 2px solid #4f46e5; outline-offset: 2px; }
    </style><g class="finch-groups"/><g class="finch-containers"><g class="finch-shape finch-shape-container finch-container finch-node" data-node-id="app" transform="translate(28 -34)"><rect width="270.2973937988281" height="176" rx="10" fill="#f8fafc" stroke="#94a3b8" stroke-width="1.25" stroke-dasharray="5 4"/></g><g class="finch-shape finch-shape-container finch-container finch-node is-selected" data-node-id="data" transform="translate(391.54345703125 29.81281280517578)"><rect width="176.86764526367188" height="254.04547119140625" rx="10" fill="#f8fafc" stroke="#94a3b8" stroke-width="1.25" stroke-dasharray="5 4"/></g><g class="finch-shape finch-shape-container finch-container finch-node" data-node-id="ops" transform="translate(36.53861999511719 171.8189239501953)"><rect width="237.2094955444336" height="173.52976989746094" rx="10" fill="#f8fafc" stroke="#94a3b8" stroke-width="1.25" stroke-dasharray="5 4"/></g></g><g class="finch-edges"><path d="M 158 93 L 379.5 93 L 379.5 223.4 L 432.4 223.4" fill="none" stroke="#64748b" stroke-width="1.5" stroke-linejoin="round" stroke-linecap="round" marker-end="url(#finch-arrow)" class="finch-edge" data-edge-id="api-db-1"/><path d="M 158 93 L 379.5 93 L 379.5 94.8 L 417.5 94.8" fill="none" stroke="#64748b" stroke-width="1.5" stroke-linejoin="round" stroke-linecap="round" marker-end="url(#finch-arrow)" class="finch-edge" data-edge-id="api-queue-2"/><path d="M 417.5 94.8 L 401.5 94.8 L 401.5 82.8 L 379.5 82.8 L 379.5 31 L 272.3 31" fill="none" stroke="#64748b" stroke-width="1.5" stroke-linejoin="round" stroke-linecap="round" marker-end="url(#finch-arrow)" class="finch-edge" data-edge-id="queue-worker-3"/><path d="M 272.3 31 L 288.3 31 L 288.3 43 L 352.4 43 L 352.4 87 A 6 6 0 0 1 352.4 99 L 352.4 210.1 L 373.5 210.1 A 6 6 0 0 1 385.5 210.1 L 432.4 210.1" fill="none" stroke="#64748b" stroke-width="1.5" stroke-linejoin="round" stroke-linecap="round" marker-end="url(#finch-arrow)" class="finch-edge" data-edge-id="worker-db-4"/><path d="M 106 116 L 106 194.7 L 100.5 194.7 L 100.5 273.3" fill="none" stroke="#64748b" stroke-width="1.5" stroke-dasharray="6 5" stroke-linejoin="round" stroke-linecap="round" marker-end="url(#finch-arrow)" class="finch-edge" data-edge-id="api-logs-5"/><path d="M 220.3 54 L 220.3 87 A 6 6 0 0 1 220.3 99 L 220.3 201.8 L 128.5 201.8 L 128.5 273.3" fill="none" stroke="#64748b" stroke-width="1.5" stroke-dasharray="6 5" stroke-linejoin="round" stroke-linecap="round" marker-end="url(#finch-arrow)" class="finch-edge" data-edge-id="worker-logs-6"/><path d="M 143.7 236.8 L 150.9 236.8 L 150.9 207.8 A 6 6 0 0 1 150.9 195.8 L 150.9 93 L 158 93" fill="none" stroke="#64748b" stroke-width="1.5" stroke-linejoin="round" stroke-linecap="round" marker-end="url(#finch-arrow)" class="finch-edge" data-edge-id="monitor-api-7"/><path d="M 247.7 236.8 L 340.1 236.8 L 340.1 236.6 L 432.4 236.6" fill="none" stroke="#64748b" stroke-width="1.5" stroke-linejoin="round" stroke-linecap="round" marker-end="url(#finch-arrow)" class="finch-edge" data-edge-id="monitor-db-8"/></g><g class="finch-nodes"><g class="finch-shape finch-shape-server finch-node" data-node-id="monitor" transform="translate(143.74811553955078 213.8189239501953)"><rect width="104" height="46" rx="8" fill="#ffffff" stroke="#cbd5e1" stroke-width="1.25" filter="url(#finch-shadow)"/><line x1="13" y1="18" x2="13" y2="28" stroke="#4f46e5" stroke-width="3" stroke-linecap="round"/><text x="52" y="23" text-anchor="middle" dominant-baseline="middle" fill="#172033" font-family="Inter, ui-sans-serif, -apple-system, BlinkMacSystemFont, &quot;Segoe UI&quot;, sans-serif" font-size="13" font-weight="560">Monitor</text></g><g class="finch-shape finch-shape-server finch-node" data-node-id="api" transform="translate(54 70)"><rect width="104" height="46" rx="8" fill="#ffffff" stroke="#cbd5e1" stroke-width="1.25" filter="url(#finch-shadow)"/><line x1="13" y1="18" x2="13" y2="28" stroke="#4f46e5" stroke-width="3" stroke-linecap="round"/><text x="52" y="23" text-anchor="middle" dominant-baseline="middle" fill="#172033" font-family="Inter, ui-sans-serif, -apple-system, BlinkMacSystemFont, &quot;Segoe UI&quot;, sans-serif" font-size="13" font-weight="560">API</text></g><g class="finch-shape finch-shape-server finch-node" data-node-id="queue" transform="translate(417.54345703125 71.81281280517578)"><rect width="104" height="46" rx="8" fill="#ffffff" stroke="#cbd5e1" stroke-width="1.25" filter="url(#finch-shadow)"/><line x1="13" y1="18" x2="13" y2="28" stroke="#4f46e5" stroke-width="3" stroke-linecap="round"/><text x="52" y="23" text-anchor="middle" dominant-baseline="middle" fill="#172033" font-family="Inter, ui-sans-serif, -apple-system, BlinkMacSystemFont, &quot;Segoe UI&quot;, sans-serif" font-size="13" font-weight="560">Queue</text></g><g class="finch-shape finch-shape-server finch-node" data-node-id="worker" transform="translate(168.29739379882812 8)"><rect width="104" height="46" rx="8" fill="#ffffff" stroke="#cbd5e1" stroke-width="1.25" filter="url(#finch-shadow)"/><line x1="13" y1="18" x2="13" y2="28" stroke="#4f46e5" stroke-width="3" stroke-linecap="round"/><text x="52" y="23" text-anchor="middle" dominant-baseline="middle" fill="#172033" font-family="Inter, ui-sans-serif, -apple-system, BlinkMacSystemFont, &quot;Segoe UI&quot;, sans-serif" font-size="13" font-weight="560">Worker</text></g><g class="finch-shape finch-shape-database finch-node" data-node-id="db" transform="translate(432.4111022949219 188.85828399658203)"><path d="M 0 10 A 55 10 0 0 1 110 10 L 110 59 A 55 10 0 0 1 0 59 Z" fill="#ffffff" stroke="#cbd5e1" stroke-width="1.25" filter="url(#finch-shadow)"/><ellipse cx="55" cy="10" rx="55" ry="10" fill="#ffffff" stroke="#cbd5e1" stroke-width="1.25"/><text x="55" y="39.5" text-anchor="middle" dominant-baseline="middle" fill="#172033" font-family="Inter, ui-sans-serif, -apple-system, BlinkMacSystemFont, &quot;Segoe UI&quot;, sans-serif" font-size="13" font-weight="560">Database</text></g><g class="finch-shape finch-shape-server finch-node" data-node-id="logs" transform="translate(62.53861999511719 273.34869384765625)"><rect width="104" height="46" rx="8" fill="#ffffff" stroke="#cbd5e1" stroke-width="1.25" filter="url(#finch-shadow)"/><line x1="13" y1="18" x2="13" y2="28" stroke="#4f46e5" stroke-width="3" stroke-linecap="round"/><text x="52" y="23" text-anchor="middle" dominant-baseline="middle" fill="#172033" font-family="Inter, ui-sans-serif, -apple-system, BlinkMacSystemFont, &quot;Segoe UI&quot;, sans-serif" font-size="13" font-weight="560">Logs</text></g></g><g class="finch-container-headings"><g data-node-id="app" transform="translate(28 -34)"><text x="16" y="23" fill="#64748b" font-family="Inter, ui-sans-serif, -apple-system, BlinkMacSystemFont, &quot;Segoe UI&quot;, sans-serif" font-size="12" font-weight="650">Application</text></g><g data-node-id="data" transform="translate(391.54345703125 29.81281280517578)"><text x="16" y="23" fill="#64748b" font-family="Inter, ui-sans-serif, -apple-system, BlinkMacSystemFont, &quot;Segoe UI&quot;, sans-serif" font-size="12" font-weight="650">Data</text></g><g data-node-id="ops" transform="translate(36.53861999511719 171.8189239501953)"><text x="16" y="23" fill="#64748b" font-family="Inter, ui-sans-serif, -apple-system, BlinkMacSystemFont, &quot;Segoe UI&quot;, sans-serif" font-size="12" font-weight="650">Operations</text></g></g></svg>